<mxfile host="app.diagrams.net" modified="2024-07-17T02:17:22.433Z" agent="Mozilla/5.0 (Macintosh; Intel Mac OS X 10_15_7) AppleWebKit/537.36 (KHTML, like Gecko) Chrome/126.0.0.0 Safari/537.36" version="24.7.0" etag="TQg40Owc_H5uh7n0WXqC" type="github">
  <diagram name="Page-1" id="dCynuU-XUyNoyb5x6CHW">
    <mxGraphModel>
      <root>
        <mxCell id="0" />
        <mxCell id="1" parent="0" />
      </root>
    </mxGraphModel>
  </diagram>
</mxfile>
